<svg width="69" height="84" viewBox="0 0 69 84" fill="none" xmlns="http://www.w3.org/2000/svg">
<path d="M49.1285 37.436L49.1368 30.0703L49.1357 29.9064C49.1347 29.8202 49.1331 29.7421 49.1309 29.6715L49.1285 29.6042L49.0293 29.5558C48.963 29.5239 48.8895 29.4894 48.8083 29.4521L48.6538 29.382L34.5884 23.0665L20.7904 29.3623C20.6283 29.4363 20.4919 29.5008 20.3784 29.5569L20.317 29.5875L20.316 29.6149C20.3117 29.7362 20.3092 29.8814 20.3087 30.0537L20.3784 39.3081L12.3312 43.724L12.4729 30.1121L12.4735 29.931C12.4826 28.5355 12.6011 27.6816 12.9459 26.7231C13.3106 25.7093 13.8857 24.8142 14.6561 24.0615C15.3998 23.3348 16.1423 22.8683 17.4575 22.2631L34.5624 14.4583L51.8606 22.2252C53.2378 22.8436 54.0024 23.313 54.7686 24.0557C55.5453 24.8086 56.1259 25.7062 56.4943 26.7238C56.8576 27.7276 56.9726 28.618 56.9726 30.1289L49.1285 37.436ZM49.1019 41.6653L56.7605 37.687L56.9721 41.6653C56.9596 45.1062 56.6851 47.2927 55.9877 49.5031C55.2722 51.7703 54.1498 53.7679 52.5858 55.5574L52.4739 55.6844C50.9579 57.3896 49.2237 58.7489 46.3007 60.5343L34.5589 67.6773L22.9772 60.5176C20.0967 58.7369 18.3305 57.3231 16.8037 55.5594C15.2575 53.7732 14.1493 51.7842 13.4435 49.5288L20.921 47.1842C21.3051 48.4119 21.8838 49.4504 22.7255 50.4227C23.658 51.4999 24.8072 52.4243 27.0046 53.7883L34.592 58.4787L42.1226 53.8976C44.5255 52.4359 45.6931 51.5216 46.6543 50.4316L46.6886 50.3926C47.54 49.4183 48.1264 48.3749 48.5159 47.1405L48.5467 47.0413C48.9669 45.6674 49.1019 44.4464 49.1019 41.6653Z" fill="white"/>
<path d="M34.45 0.606659L63.4839 14.2617L63.646 14.3386C64.893 14.9349 65.6077 15.3991 66.3233 16.1091C67.0813 16.8612 67.6461 17.7515 68.0038 18.7581C68.3089 19.6167 68.4329 20.3894 68.4605 21.5511L68.4667 21.5515L68.4666 22.0509C68.4667 22.0726 68.4667 22.0943 68.4667 22.1162L68.4665 22.1161L68.4667 22.9772C68.4667 25.2369 67.2527 27.3223 65.2877 28.4381L11.7789 58.8227C14.3266 60.718 21.8836 65.8149 34.45 74.1132C49.3318 64.2937 57.098 59.0519 57.7487 58.3878L57.8147 58.3198C57.8914 58.2402 57.9669 58.1595 58.042 58.0771C58.937 57.0953 59.5575 56.0306 59.9707 54.7674L60.0001 54.6767C60.372 53.5107 60.5491 52.3672 60.6077 50.0665C60.6183 49.6517 59.2132 48.6886 56.3925 47.1772L56.7605 37.687L68.4667 44.386V47.9228L68.466 48.3358C68.451 52.7173 68.1898 54.848 67.4176 57.2086C66.6725 59.486 65.5153 61.4895 63.9177 63.2678L63.8301 63.3646C63.1017 64.1636 58.8281 67.1722 51.0093 72.3903L50.2659 72.886C45.9945 75.7315 40.7225 79.2006 34.45 83.2933C20.4457 73.9058 10.6524 67.2629 5.06996 63.3646C-3.30363 57.5172 5.54695 52.0407 10.0952 49.5853C10.6061 49.3095 10.9816 49.143 11.2463 49.0667L60.27 21.5515L60.5432 21.5513L60.5206 21.5398C60.4555 21.5071 60.3833 21.4716 60.3035 21.4333L60.1517 21.3612L34.45 9.27323L8.64526 21.41C8.5459 21.4574 8.45757 21.5005 8.37942 21.5398L8.27771 21.5917L8.27652 21.6221C8.27229 21.7426 8.26985 21.887 8.2694 22.0582L8.27771 32.6078L12.4566 34.9319V43.724L0.43335 36.9031V22.1162C0.43335 20.625 0.544213 19.7487 0.896244 18.7581C1.25391 17.7515 1.81875 16.8612 2.57672 16.1091C3.32274 15.3689 4.06792 14.8958 5.41619 14.2617L34.45 0.606659Z" fill="#555555"/>
<mask id="mask0_2202_891" style="mask-type:luminance" maskUnits="userSpaceOnUse" x="0" y="0" width="69" height="84">
<path d="M34.45 0.606659L63.4839 14.2617L63.646 14.3386C64.893 14.9349 65.6077 15.3991 66.3233 16.1091C67.0813 16.8612 67.6461 17.7515 68.0038 18.7581C68.3089 19.6167 68.4329 20.3894 68.4605 21.5511L68.4667 21.5515L68.4666 22.0509C68.4667 22.0726 68.4667 22.0943 68.4667 22.1162L68.4665 22.1161L68.4667 22.9772C68.4667 25.2369 67.2527 27.3223 65.2877 28.4381L11.7789 58.8227C14.3266 60.718 21.8836 65.8149 34.45 74.1132C49.3318 64.2937 57.098 59.0519 57.7487 58.3878L57.8147 58.3198C57.8914 58.2402 57.9669 58.1595 58.042 58.0771C58.937 57.0953 59.5575 56.0306 59.9707 54.7674L60.0001 54.6767C60.372 53.5107 60.5491 52.3672 60.6077 50.0665C60.6183 49.6517 59.2132 48.6886 56.3925 47.1772L56.7605 37.687L68.4667 44.386V47.9228L68.466 48.3358C68.451 52.7173 68.1898 54.848 67.4176 57.2086C66.6725 59.486 65.5153 61.4895 63.9177 63.2678L63.8301 63.3646C63.1017 64.1636 58.8281 67.1722 51.0093 72.3903L50.2659 72.886C45.9945 75.7315 40.7225 79.2006 34.45 83.2933C20.4457 73.9058 10.6524 67.2629 5.06996 63.3646C-3.30363 57.5172 5.54695 52.0407 10.0952 49.5853C10.6061 49.3095 10.9816 49.143 11.2463 49.0667L60.27 21.5515L60.5432 21.5513L60.5206 21.5398C60.4555 21.5071 60.3833 21.4716 60.3035 21.4333L60.1517 21.3612L34.45 9.27323L8.64526 21.41C8.5459 21.4574 8.45757 21.5005 8.37942 21.5398L8.27771 21.5917L8.27652 21.6221C8.27229 21.7426 8.26985 21.887 8.2694 22.0582L8.27771 32.6078L12.4566 34.9319V43.724L0.43335 36.9031V22.1162C0.43335 20.625 0.544213 19.7487 0.896244 18.7581C1.25391 17.7515 1.81875 16.8612 2.57672 16.1091C3.32274 15.3689 4.06792 14.8958 5.41619 14.2617L34.45 0.606659Z" fill="white"/>
</mask>
<g mask="url(#mask0_2202_891)">
<path fill-rule="evenodd" clip-rule="evenodd" d="M12.4566 43.724L16.4723 36.9031L9.81976 31.846L-0.844299 37.687L12.4566 43.724Z" fill="#6E6E6E"/>
</g>
<mask id="mask1_2202_891" style="mask-type:luminance" maskUnits="userSpaceOnUse" x="0" y="0" width="69" height="84">
<path d="M34.45 0.606659L63.4839 14.2617L63.646 14.3386C64.893 14.9349 65.6077 15.3991 66.3233 16.1091C67.0813 16.8612 67.6461 17.7515 68.0038 18.7581C68.3089 19.6167 68.4329 20.3894 68.4605 21.5511L68.4667 21.5515L68.4666 22.0509C68.4667 22.0726 68.4667 22.0943 68.4667 22.1162L68.4665 22.1161L68.4667 22.9772C68.4667 25.2369 67.2527 27.3223 65.2877 28.4381L11.7789 58.8227C14.3266 60.718 21.8836 65.8149 34.45 74.1132C49.3318 64.2937 57.098 59.0519 57.7487 58.3878L57.8147 58.3198C57.8914 58.2402 57.9669 58.1595 58.042 58.0771C58.937 57.0953 59.5575 56.0306 59.9707 54.7674L60.0001 54.6767C60.372 53.5107 60.5491 52.3672 60.6077 50.0665C60.6183 49.6517 59.2132 48.6886 56.3925 47.1772L56.7605 37.687L68.4667 44.386V47.9228L68.466 48.3358C68.451 52.7173 68.1898 54.848 67.4176 57.2086C66.6725 59.486 65.5153 61.4895 63.9177 63.2678L63.8301 63.3646C63.1017 64.1636 58.8281 67.1722 51.0093 72.3903L50.2659 72.886C45.9945 75.7315 40.7225 79.2006 34.45 83.2933C20.4457 73.9058 10.6524 67.2629 5.06996 63.3646C-3.30363 57.5172 5.54695 52.0407 10.0952 49.5853C10.6061 49.3095 10.9816 49.143 11.2463 49.0667L60.27 21.5515L60.5432 21.5513L60.5206 21.5398C60.4555 21.5071 60.3833 21.4716 60.3035 21.4333L60.1517 21.3612L34.45 9.27323L8.64526 21.41C8.5459 21.4574 8.45757 21.5005 8.37942 21.5398L8.27771 21.5917L8.27652 21.6221C8.27229 21.7426 8.26985 21.887 8.2694 22.0582L8.27771 32.6078L12.4566 34.9319V43.724L0.43335 36.9031V22.1162C0.43335 20.625 0.544213 19.7487 0.896244 18.7581C1.25391 17.7515 1.81875 16.8612 2.57672 16.1091C3.32274 15.3689 4.06792 14.8958 5.41619 14.2617L34.45 0.606659Z" fill="white"/>
</mask>
<g mask="url(#mask1_2202_891)">
<path fill-rule="evenodd" clip-rule="evenodd" d="M60.6032 49.5853L68.4666 44.386L57.9664 37.7073L47.3023 43.5484L60.6032 49.5853Z" fill="#242424"/>
</g>
<mask id="mask2_2202_891" style="mask-type:luminance" maskUnits="userSpaceOnUse" x="0" y="0" width="69" height="84">
<path d="M34.45 0.606659L63.4839 14.2617L63.646 14.3386C64.893 14.9349 65.6077 15.3991 66.3233 16.1091C67.0813 16.8612 67.6461 17.7515 68.0038 18.7581C68.3089 19.6167 68.4329 20.3894 68.4605 21.5511L68.4667 21.5515L68.4666 22.0509C68.4667 22.0726 68.4667 22.0943 68.4667 22.1162L68.4665 22.1161L68.4667 22.9772C68.4667 25.2369 67.2527 27.3223 65.2877 28.4381L11.7789 58.8227C14.3266 60.718 21.8836 65.8149 34.45 74.1132C49.3318 64.2937 57.098 59.0519 57.7487 58.3878L57.8147 58.3198C57.8914 58.2402 57.9669 58.1595 58.042 58.0771C58.937 57.0953 59.5575 56.0306 59.9707 54.7674L60.0001 54.6767C60.372 53.5107 60.5491 52.3672 60.6077 50.0665C60.6183 49.6517 59.2132 48.6886 56.3925 47.1772L56.7605 37.687L68.4667 44.386V47.9228L68.466 48.3358C68.451 52.7173 68.1898 54.848 67.4176 57.2086C66.6725 59.486 65.5153 61.4895 63.9177 63.2678L63.8301 63.3646C63.1017 64.1636 58.8281 67.1722 51.0093 72.3903L50.2659 72.886C45.9945 75.7315 40.7225 79.2006 34.45 83.2933C20.4457 73.9058 10.6524 67.2629 5.06996 63.3646C-3.30363 57.5172 5.54695 52.0407 10.0952 49.5853C10.6061 49.3095 10.9816 49.143 11.2463 49.0667L60.27 21.5515L60.5432 21.5513L60.5206 21.5398C60.4555 21.5071 60.3833 21.4716 60.3035 21.4333L60.1517 21.3612L34.45 9.27323L8.64526 21.41C8.5459 21.4574 8.45757 21.5005 8.37942 21.5398L8.27771 21.5917L8.27652 21.6221C8.27229 21.7426 8.26985 21.887 8.2694 22.0582L8.27771 32.6078L12.4566 34.9319V43.724L0.43335 36.9031V22.1162C0.43335 20.625 0.544213 19.7487 0.896244 18.7581C1.25391 17.7515 1.81875 16.8612 2.57672 16.1091C3.32274 15.3689 4.06792 14.8958 5.41619 14.2617L34.45 0.606659Z" fill="white"/>
</mask>
<g mask="url(#mask2_2202_891)">
<path fill-rule="evenodd" clip-rule="evenodd" d="M60.057 21.5515C65.7175 18.8388 66.9061 16.4744 63.6227 14.4583C60.3394 12.4422 50.6152 7.42548 34.45 -0.59198L34.533 9.21769L60.057 21.5515Z" fill="#6E6E6E"/>
</g>
<mask id="mask3_2202_891" style="mask-type:luminance" maskUnits="userSpaceOnUse" x="0" y="0" width="69" height="84">
<path d="M34.45 0.606659L63.4839 14.2617L63.646 14.3386C64.893 14.9349 65.6077 15.3991 66.3233 16.1091C67.0813 16.8612 67.6461 17.7515 68.0038 18.7581C68.3089 19.6167 68.4329 20.3894 68.4605 21.5511L68.4667 21.5515L68.4666 22.0509C68.4667 22.0726 68.4667 22.0943 68.4667 22.1162L68.4665 22.1161L68.4667 22.9772C68.4667 25.2369 67.2527 27.3223 65.2877 28.4381L11.7789 58.8227C14.3266 60.718 21.8836 65.8149 34.45 74.1132C49.3318 64.2937 57.098 59.0519 57.7487 58.3878L57.8147 58.3198C57.8914 58.2402 57.9669 58.1595 58.042 58.0771C58.937 57.0953 59.5575 56.0306 59.9707 54.7674L60.0001 54.6767C60.372 53.5107 60.5491 52.3672 60.6077 50.0665C60.6183 49.6517 59.2132 48.6886 56.3925 47.1772L56.7605 37.687L68.4667 44.386V47.9228L68.466 48.3358C68.451 52.7173 68.1898 54.848 67.4176 57.2086C66.6725 59.486 65.5153 61.4895 63.9177 63.2678L63.8301 63.3646C63.1017 64.1636 58.8281 67.1722 51.0093 72.3903L50.2659 72.886C45.9945 75.7315 40.7225 79.2006 34.45 83.2933C20.4457 73.9058 10.6524 67.2629 5.06996 63.3646C-3.30363 57.5172 5.54695 52.0407 10.0952 49.5853C10.6061 49.3095 10.9816 49.143 11.2463 49.0667L60.27 21.5515L60.5432 21.5513L60.5206 21.5398C60.4555 21.5071 60.3833 21.4716 60.3035 21.4333L60.1517 21.3612L34.45 9.27323L8.64526 21.41C8.5459 21.4574 8.45757 21.5005 8.37942 21.5398L8.27771 21.5917L8.27652 21.6221C8.27229 21.7426 8.26985 21.887 8.2694 22.0582L8.27771 32.6078L12.4566 34.9319V43.724L0.43335 36.9031V22.1162C0.43335 20.625 0.544213 19.7487 0.896244 18.7581C1.25391 17.7515 1.81875 16.8612 2.57672 16.1091C3.32274 15.3689 4.06792 14.8958 5.41619 14.2617L34.45 0.606659Z" fill="white"/>
</mask>
<g mask="url(#mask3_2202_891)">
<path fill-rule="evenodd" clip-rule="evenodd" d="M34.45 83.2933V74.1132L11.5306 58.9643C7.49023 61.0936 6.06246 63.0252 7.2473 64.7591C8.43215 66.4929 17.4997 72.671 34.45 83.2933Z" fill="#6E6E6E"/>
</g>
</svg>
